<svg width="23" height="24" viewBox="0 0 23 24" fill="none" xmlns="http://www.w3.org/2000/svg">
<g id="icon-message-circle">
<path id="Vector" d="M19.5004 11.5C19.5036 12.8199 19.2173 14.1219 18.6647 15.3C18.0095 16.7118 17.0023 17.8992 15.7559 18.7293C14.5095 19.5594 13.0731 19.9994 11.6076 20C10.382 20.0035 9.17295 19.6951 8.07899 19.1L2.78613 21L4.55042 15.3C3.99785 14.1219 3.71151 12.8199 3.7147 11.5C3.71527 9.92179 4.12384 8.37488 4.89466 7.03258C5.66547 5.69028 6.76808 4.6056 8.07899 3.90003C9.17295 3.30496 10.382 2.99659 11.6076 3.00003H12.0718C14.0073 3.11502 15.8354 3.99479 17.206 5.47089C18.5767 6.94699 19.3936 8.91568 19.5004 11V11.5Z" stroke="#767676" stroke-width="2" stroke-linecap="round" stroke-linejoin="round"/>
</g>
</svg>
