<svg width="18" height="16" viewBox="0 0 18 16" fill="none" xmlns="http://www.w3.org/2000/svg">
<path id="Vector" d="M1.6875 0.6875C1.35374 0.6875 1.02748 0.78647 0.749976 0.971895C0.472468 1.15732 0.256177 1.42087 0.128454 1.72922C0.00073117 2.03757 -0.032687 2.37687 0.0324256 2.70421C0.0975382 3.03156 0.258257 3.33224 0.494258 3.56824C0.730259 3.80424 1.03094 3.96496 1.35829 4.03008C1.68563 4.09519 2.02493 4.06177 2.33328 3.93405C2.64163 3.80632 2.90518 3.59003 3.09061 3.31252C3.27603 3.03502 3.375 2.70876 3.375 2.375C3.375 1.92745 3.19721 1.49822 2.88074 1.18176C2.56428 0.86529 2.13505 0.6875 1.6875 0.6875ZM1.6875 6.3125C1.35374 6.3125 1.02748 6.41147 0.749976 6.59689C0.472468 6.78232 0.256177 7.04587 0.128454 7.35422C0.00073117 7.66257 -0.032687 8.00187 0.0324256 8.32921C0.0975382 8.65656 0.258257 8.95724 0.494258 9.19324C0.730259 9.42924 1.03094 9.58996 1.35829 9.65507C1.68563 9.72019 2.02493 9.68677 2.33328 9.55905C2.64163 9.43132 2.90518 9.21503 3.09061 8.93752C3.27603 8.66002 3.375 8.33376 3.375 8C3.375 7.55245 3.19721 7.12322 2.88074 6.80676C2.56428 6.49029 2.13505 6.3125 1.6875 6.3125ZM1.6875 11.9375C1.35374 11.9375 1.02748 12.0365 0.749976 12.2219C0.472468 12.4073 0.256177 12.6709 0.128454 12.9792C0.00073117 13.2876 -0.032687 13.6269 0.0324256 13.9542C0.0975382 14.2816 0.258257 14.5822 0.494258 14.8182C0.730259 15.0542 1.03094 15.215 1.35829 15.2801C1.68563 15.3452 2.02493 15.3118 2.33328 15.184C2.64163 15.0563 2.90518 14.84 3.09061 14.5625C3.27603 14.285 3.375 13.9588 3.375 13.625C3.375 13.1774 3.19721 12.7482 2.88074 12.4318C2.56428 12.1153 2.13505 11.9375 1.6875 11.9375ZM17.4375 12.5H6.1875C6.03832 12.5 5.89524 12.5593 5.78975 12.6648C5.68426 12.7702 5.625 12.9133 5.625 13.0625V14.1875C5.625 14.3367 5.68426 14.4798 5.78975 14.5852C5.89524 14.6907 6.03832 14.75 6.1875 14.75H17.4375C17.5867 14.75 17.7298 14.6907 17.8352 14.5852C17.9407 14.4798 18 14.3367 18 14.1875V13.0625C18 12.9133 17.9407 12.7702 17.8352 12.6648C17.7298 12.5593 17.5867 12.5 17.4375 12.5ZM17.4375 1.25H6.1875C6.03832 1.25 5.89524 1.30926 5.78975 1.41475C5.68426 1.52024 5.625 1.66332 5.625 1.8125V2.9375C5.625 3.08668 5.68426 3.22976 5.78975 3.33525C5.89524 3.44074 6.03832 3.5 6.1875 3.5H17.4375C17.5867 3.5 17.7298 3.44074 17.8352 3.33525C17.9407 3.22976 18 3.08668 18 2.9375V1.8125C18 1.66332 17.9407 1.52024 17.8352 1.41475C17.7298 1.30926 17.5867 1.25 17.4375 1.25ZM17.4375 6.875H6.1875C6.03832 6.875 5.89524 6.93426 5.78975 7.03975C5.68426 7.14524 5.625 7.28831 5.625 7.4375V8.5625C5.625 8.71168 5.68426 8.85476 5.78975 8.96025C5.89524 9.06574 6.03832 9.125 6.1875 9.125H17.4375C17.5867 9.125 17.7298 9.06574 17.8352 8.96025C17.9407 8.85476 18 8.71168 18 8.5625V7.4375C18 7.28831 17.9407 7.14524 17.8352 7.03975C17.7298 6.93426 17.5867 6.875 17.4375 6.875Z" fill="#767676"/>
</svg>
