<svg width="18" height="22" viewBox="0 0 18 22" fill="none" xmlns="http://www.w3.org/2000/svg">
<path id="Vector" d="M8.22922 20.5965C2.55352 12.3684 1.5 11.5239 1.5 8.5C1.5 4.35785 4.85785 1 9 1C13.1421 1 16.5 4.35785 16.5 8.5C16.5 11.5239 15.4465 12.3684 9.77078 20.5965C9.39832 21.1345 8.60164 21.1345 8.22922 20.5965ZM9 11.625C10.7259 11.625 12.125 10.2259 12.125 8.5C12.125 6.7741 10.7259 5.375 9 5.375C7.2741 5.375 5.875 6.7741 5.875 8.5C5.875 10.2259 7.2741 11.625 9 11.625Z" stroke="#767676" stroke-width="2"/>
</svg>
