<svg width="23" height="24" viewBox="0 0 23 24" fill="none" xmlns="http://www.w3.org/2000/svg">
<g id="icon-user">
<path id="Vector" d="M18.572 21.6333V18.6833C18.572 17.6401 18.1807 16.6397 17.4841 15.902C16.7875 15.1644 15.8428 14.75 14.8577 14.75H7.42913C6.44404 14.75 5.4993 15.1644 4.80273 15.902C4.10617 16.6397 3.71484 17.6401 3.71484 18.6833V21.6333" stroke="#767676" stroke-width="2" stroke-linecap="round" stroke-linejoin="round"/>
<path id="Vector 1" d="M3.71484 21.6333H18.572" stroke="#767676" stroke-width="2" stroke-linecap="round"/>
<path id="Vector_2" d="M11.142 10.8166C13.1934 10.8166 14.8563 9.0556 14.8563 6.88328C14.8563 4.71096 13.1934 2.94995 11.142 2.94995C9.09068 2.94995 7.42773 4.71096 7.42773 6.88328C7.42773 9.0556 9.09068 10.8166 11.142 10.8166Z" stroke="#767676" stroke-width="2" stroke-linecap="round" stroke-linejoin="round"/>
</g>
</svg>
