<svg width="23" height="24" viewBox="0 0 23 24" fill="none" xmlns="http://www.w3.org/2000/svg">
<g id="icon-user">
<path id="Vector" d="M18.571 21.6333V18.6833C18.571 17.6401 18.1797 16.6397 17.4831 15.902C16.7866 15.1644 15.8418 14.75 14.8567 14.75H7.42815C6.44306 14.75 5.49832 15.1644 4.80176 15.902C4.10519 16.6397 3.71387 17.6401 3.71387 18.6833V21.6333" stroke="#767676" stroke-width="2" stroke-linecap="round" stroke-linejoin="round"/>
<path id="Vector 1" d="M3.71387 21.6333H18.571" stroke="#767676" stroke-width="2" stroke-linecap="round"/>
<path id="Vector_2" d="M11.143 10.8169C13.1943 10.8169 14.8573 9.05585 14.8573 6.88353C14.8573 4.71121 13.1943 2.9502 11.143 2.9502C9.09165 2.9502 7.42871 4.71121 7.42871 6.88353C7.42871 9.05585 9.09165 10.8169 11.143 10.8169Z" stroke="#767676" stroke-width="2" stroke-linecap="round" stroke-linejoin="round"/>
</g>
</svg>
